<?xml version="1.0" encoding="UTF-8" standalone="no"?>
<svg
   xmlns:dc="http://purl.org/dc/elements/1.1/"
   xmlns:cc="http://creativecommons.org/ns#"
   xmlns:rdf="http://www.w3.org/1999/02/22-rdf-syntax-ns#"
   xmlns:svg="http://www.w3.org/2000/svg"
   xmlns="http://www.w3.org/2000/svg"
   xmlns:sodipodi="http://sodipodi.sourceforge.net/DTD/sodipodi-0.dtd"
   xmlns:inkscape="http://www.inkscape.org/namespaces/inkscape"
   sodipodi:docname="logoDor.svg"
   inkscape:version="1.0 (4035a4fb49, 2020-05-01)"
   id="svg142"
   version="1.1"
   viewBox="0 0 79.099999 40"
   height="40mm"
   width="79.099998mm">
  <defs
     id="defs136" />
  <sodipodi:namedview
     inkscape:window-maximized="1"
     inkscape:window-y="41"
     inkscape:window-x="-9"
     inkscape:window-height="1001"
     inkscape:window-width="1920"
     showgrid="false"
     inkscape:document-rotation="0"
     inkscape:current-layer="layer1"
     inkscape:document-units="mm"
     inkscape:cy="353.52701"
     inkscape:cx="505.8642"
     inkscape:zoom="0.98994949"
     inkscape:pageshadow="2"
     inkscape:pageopacity="0.0"
     borderopacity="1.0"
     bordercolor="#666666"
     pagecolor="#ffffff"
     id="base" />
  <metadata
     id="metadata139">
    <rdf:RDF>
      <cc:Work
         rdf:about="">
        <dc:format>image/svg+xml</dc:format>
        <dc:type
           rdf:resource="http://purl.org/dc/dcmitype/StillImage" />
        <dc:title></dc:title>
      </cc:Work>
    </rdf:RDF>
  </metadata>
  <g
     id="layer1"
     inkscape:groupmode="layer"
     inkscape:label="Capa 1">
    <g
       transform="translate(-30.201457,-48.108515)"
       id="g175">
      <path
         id="path32"
         d="m 72.518671,57.130813 c -2.155253,1.205783 -3.095075,0.778592 -3.803385,0.311437 -0.424437,-0.278364 -0.766191,-0.570508 -1.236102,-0.527789 -0.06201,0.0055 -0.117134,0.03032 -0.165364,0.06339 -0.256316,0.192925 -0.403765,0.748275 -0.39963,1.24299 0.0028,0.195682 0.02755,0.384473 0.07579,0.531923 0.202573,0.58291 0.71796,0.121267 1.001837,0.545703 0.163983,0.243912 0.296275,0.507118 0.396875,0.778591 0.148825,0.409277 0.23151,0.836469 0.237019,1.220942 0.0069,0.388607 -0.05788,0.73036 -0.195678,0.977029 -0.07579,0.137804 -0.202573,0.235645 -0.380341,0.275608 -0.115753,0.02756 -0.256313,0.03032 -0.421677,0.0028 -0.24116,-0.04272 -0.537438,-0.152962 -0.879189,-0.3514 -0.17639,-0.100597 -0.381717,-0.283876 -0.595313,-0.518142 -0.587044,-0.644922 -1.220943,-1.670183 -1.416621,-2.355068 -0.01791,-0.06339 -0.03031,-0.124023 -0.04272,-0.179144 -0.559485,-3.129525 0.784106,-6.604937 0.784106,-6.604937 0,0 0.05787,0.01653 0.158475,0.0441 0.508492,0.148828 2.131825,0.613227 3.412019,0.949468 0.509873,0.137804 0.967386,0.246669 1.271932,0.310059 1.936141,0.403765 2.659612,1.576475 2.637562,2.428103 -0.0055,0.384472 -0.16674,0.701421 -0.439592,0.854384 z m 0.321085,18.162542 c -0.461645,-1.003212 -0.638035,-1.919605 -0.512633,-2.969673 0.03721,-2.412943 1.637112,-5.111143 2.873209,-6.693129 -1.581986,2.782259 -1.83279,6.118489 -0.974273,9.717923 0.09784,0.403764 0.210841,0.79375 0.334865,1.182356 -0.08406,0.09784 -0.299032,0.0028 -0.485071,-0.119888 -0.655945,-0.165364 -1.065224,-0.665593 -1.236097,-1.117589 z m 8.743649,-17.399109 c -0.0083,0.03721 -0.02066,0.06752 -0.0303,0.104731 -0.07855,0.259071 -0.115753,0.478179 -1.197515,0.176389 -0.07028,-0.02205 -0.146071,-0.04272 -0.228751,-0.06752 -1.300869,-0.399631 -3.288003,-1.557183 -3.290758,-1.559939 0.0028,0.0027 0.577398,0.03996 1.313273,0.130914 0.738627,0.08957 1.639861,0.225998 2.290297,0.427191 0.977032,0.300413 1.163066,0.494716 1.15893,0.690397 -0.0028,0.03445 -0.0096,0.06752 -0.01516,0.09784 z m 12.880522,4.847938 c 0,0 -0.847492,-1.886534 -1.730814,-2.368847 -3.235632,-1.765267 -5.455653,-2.082216 -6.52639,-2.105643 -0.485068,-0.0124 -0.735872,0.03583 -0.735872,0.03583 0,0 -0.01929,-0.03445 -0.04961,-0.09508 -0.208084,-0.42168 -1.06798,-2.137337 -1.456586,-2.594846 -0.552591,-0.662836 -1.655022,-1.373904 -2.441882,-1.733572 -0.115756,-0.05237 -0.220486,-0.09508 -0.318328,-0.135048 -1.715657,-0.631141 -4.389049,-1.251258 -7.091384,-1.761132 -2.70509,-0.509875 -5.430848,-0.910884 -7.251237,-1.107943 -0.115755,-0.0124 -0.235646,-0.02205 -0.354155,-0.03307 -1.798342,-0.168121 -3.996312,-0.117133 -8.270987,1.635731 -0.931552,0.381717 -1.718413,0.733117 -2.406054,1.087273 -0.686262,0.347265 -1.273305,0.698665 -1.806607,1.070735 -2.162143,1.514464 -2.833246,3.071647 -2.91593,4.271918 -0.0248,0.396875 0.01242,0.756543 0.08268,1.058333 0.165364,0.705556 0.690396,-1.384928 3.358278,-2.078081 0.301791,-0.07717 0.577399,-0.146072 0.829579,-0.202572 1.759754,-0.405143 2.333017,-0.344509 2.333017,-0.344509 0,0 0.03996,0.02481 0.0303,0.05512 -0.0055,0.02205 -0.02617,0.04547 -0.08544,0.06752 -0.07579,0.03032 -0.161232,0.07028 -0.256315,0.110243 -1.406977,0.649056 -4.701865,2.660992 -5.751932,4.225065 -0.119888,0.180523 -0.213597,0.396875 -0.286632,0.640788 -0.143316,0.487825 -0.201193,1.087272 -0.201193,1.690853 0.0028,0.908128 0.137806,1.838304 0.314195,2.463931 0.112998,0.416168 0.248045,0.695911 0.369312,0.742763 0.494714,0.186037 0.628385,-0.613227 1.178221,-1.484147 0.330729,-0.522277 0.806154,-1.069357 1.597149,-1.437294 2.109777,-0.989432 2.677526,-0.256314 2.677526,-0.256314 0,0 0.01242,0.01792 0.01792,0.03306 0,0.0055 -0.0028,0.0083 -0.0028,0.01101 0,0.01654 -0.0069,0.03447 -0.03721,0.04961 -0.110243,0.04823 -0.301791,0.146075 -0.545701,0.290767 -1.270554,0.731739 -3.993558,2.645833 -3.978399,5.057401 0,0.09233 0.0055,0.184658 0.01517,0.278363 0.125402,1.317406 0.378961,2.350935 0.671107,3.175 0.491959,1.371148 1.096916,2.146984 1.416621,2.586576 0.413413,0.57051 0.479559,-0.07304 0.778591,-1.087271 0.0193,-0.05788 0.03721,-0.118512 0.05512,-0.183279 0.253559,-0.802019 0.660082,-1.801096 1.484147,-2.604491 0.06339,-0.06339 0.130915,-0.124022 0.198437,-0.181903 1.755622,-1.529619 2.971052,-2.403298 3.39135,-2.69682 0.09509,-0.06752 0.101979,-0.0083 0.09509,0.0248 0,0.0083 0,0.01517 0,0.01517 0,0 -1.233347,1.163066 -2.345423,2.785018 -0.899858,1.314648 -1.71428,2.931086 -1.72117,4.468975 -0.0028,0.356912 0.03996,0.705554 0.135047,1.050068 0.206707,0.760677 0.512632,1.413864 0.854386,1.978861 1.309138,2.158008 3.254926,3.004124 3.254926,3.004124 0.323839,-0.04548 0.417547,-0.146074 0.412033,-0.348647 -0.01241,-0.311435 -0.250804,-0.857136 -0.253558,-1.788691 -0.0028,-0.03996 -0.0069,-0.07993 -0.0028,-0.119888 0.0055,-0.380342 0.05099,-0.817179 0.168119,-1.324298 0.161232,-0.726223 0.402389,-1.336696 0.661459,-1.836923 0.434083,-0.837848 0.916397,-1.362879 1.178221,-1.581986 0.140563,-0.115757 0.135051,0.02067 0.135051,0.02067 0,0 -0.0069,0.0248 -0.01791,0.07303 -0.0096,0.04685 -0.02893,0.117134 -0.04686,0.205328 -0.181898,0.802018 -0.683506,3.192915 -0.676616,5.251704 0.0028,1.146527 0.163989,2.185566 0.622874,2.79604 0.219107,0.29352 0.472668,0.562239 0.751033,0.815797 0.0937,0.0813 0.191545,0.163989 0.289388,0.246669 2.564527,2.079461 6.836445,2.742297 6.975629,2.393653 0.0096,-0.02479 -0.0028,-0.05512 -0.04272,-0.09371 -1.427647,-1.357366 -2.909038,-2.495627 -3.803385,-6.443705 -0.268719,-1.180981 -0.389986,-2.310969 -0.434084,-3.325207 -0.01241,-0.337621 -0.01516,-0.664215 -0.01241,-0.972896 0.0096,-1.236099 0.135046,-2.225531 0.228751,-2.800174 0.01654,-0.07855 0.03168,-0.115754 0.0441,-0.130912 0.06063,-0.07579 0.128159,0.2384 0.128159,0.2384 0,0 1.20578,7.739062 5.589323,11.797387 0.454753,0.414787 0.100595,0.04823 0.625628,0.377582 1.056958,0.660077 2.488737,1.084516 3.887444,1.322916 0.253561,0.04548 0.509879,0.08268 0.759301,0.115753 0.126778,0.01241 0.248047,0.02755 0.369314,0.04272 2.091862,0.213596 3.841972,0.01516 3.746889,-0.417549 -0.0028,-0.02479 -0.01516,-0.04961 -0.03721,-0.07717 C 81.84926,86.0186 81.088583,86.937749 79.428048,85.536286 78.282897,84.566149 77.828144,83.797201 78.37109,83.58636 l 0.265962,0.106113 c 1.227833,0.431324 2.629297,1.911335 5.032595,2.253089 0.322463,0.04548 0.680751,0.07304 1.065225,0.07028 0.888834,-0.0055 1.795582,-0.0882 2.648588,-0.228753 0.24529,-0.03583 0.486447,-0.08268 0.720714,-0.128159 1.994022,-0.399632 3.570497,-1.062466 3.709678,-1.615059 0.0069,-0.03031 0.01241,-0.06064 0.0097,-0.09509 -0.0097,-0.128156 -0.09784,-0.246669 -0.283877,-0.352777 -0.04961,-0.02479 -0.100597,-0.04961 -0.158475,-0.07717 -0.69315,-0.29628 -3.400999,0.249425 -5.929696,-0.622874 -0.582912,-0.203949 -1.157552,-0.479555 -1.690852,-0.861272 -2.237936,-1.584746 -2.680287,-3.034443 -2.772616,-3.522268 -0.01791,-0.114377 -0.01791,-0.175009 -0.01791,-0.175009 0,0 0.03583,-0.0028 0.110244,-0.0055 0.490582,-0.02755 2.474957,-0.150207 2.778125,-0.504359 0.323836,-0.376206 0.708308,-0.992188 1.044551,-1.693612 0.341754,-0.697288 0.628385,-1.475878 0.766188,-2.159385 0.05237,-0.274229 0.08268,-0.533302 0.07855,-0.768946 -0.0028,-0.469911 -0.136428,-0.839224 -0.451996,-1.026637 -0.261829,-0.151585 -0.551217,0.0041 -0.899859,0.235645 -0.04961,0.0303 -0.101975,0.06752 -0.152966,0.100595 -0.414787,0.281121 -0.913635,0.617361 -1.526863,0.660082 -0.278362,0.01517 -0.525031,0.01792 -0.756541,-0.0028 -0.698667,-0.06752 -1.255395,-0.340374 -1.984375,-1.011477 -0.48645,-0.447862 -0.961872,-1.424894 -0.974275,-2.421213 -0.0028,-0.451996 0.0882,-0.906752 0.316949,-1.318786 0.858518,-1.517219 2.455662,-3.144682 4.344953,-3.72208 0.08544,-0.02618 0.17639,-0.05099 0.268716,-0.0689 1.358747,-0.308681 2.915931,0.09371 3.287999,0.94258 0.238405,0.54708 0.308681,1.047309 0.283876,1.504816 -0.05512,1.145148 -0.68626,2.036741 -0.713824,2.782259 -0.0028,0.148826 0.01516,0.289387 0.06753,0.427193 0.334862,0.87643 0.912262,0.344508 3.555338,-1.215433 0.263205,-0.155716 0.494716,-0.305921 0.702797,-0.451996 1.446943,-1.019747 1.634358,-1.798338 1.634358,-1.798338 0,0 0.542946,-0.977028 0.713819,-2.316483 0.206709,-1.576476 -0.775835,-1.448318 -0.833712,-1.435915 l 0.824068,-0.146073 z m 0,0"
         style="fill:#f0eb5e;fill-opacity:0.46;fill-rule:nonzero;stroke:none;stroke-width:0.352777" />
      <path
         id="path34"
         d="m 79.217315,52.488202 c 0,0 -2.185569,-1.463476 -2.649969,-1.988508 -0.08819,-0.09784 -0.163986,-0.249426 -0.234264,-0.424436 -0.192929,-0.475424 -0.321085,-1.120345 -0.343133,-1.220942 0,-0.0096 0,-0.01516 0,-0.01516 0,0 -2.772611,0.333485 -3.388598,0.622873 -0.03583,0.01791 -0.07304,0.03583 -0.108863,0.06063 -0.574643,0.378961 -1.305002,1.572342 -1.305002,1.572342 z m 0,0"
         style="fill:#f0eb5e;fill-opacity:0.46;fill-rule:nonzero;stroke:none;stroke-width:0.352777" />
      <path
         id="path36"
         d="M 30.990113,79.568029 C 55.386901,74.913018 76.127754,74.448618 107.93977,76.805065 80.545746,75.881778 56.518269,76.380626 30.990113,79.568029"
         style="fill:#e6c751;fill-opacity:1;fill-rule:evenodd;stroke:none;stroke-width:0.352777" />
      <path
         id="path38"
         d="m 47.868324,62.217152 c -0.733118,0 -1.045929,0.195681 -1.045929,0.562239 v 1.415247 c 0,0.366557 0.312811,0.556726 1.045929,0.556726 h 0.487825 c 0.734494,0 1.051444,-0.190169 1.051444,-0.556726 v -1.415247 c 0,-0.366558 -0.31695,-0.562239 -1.051444,-0.562239 z m 51.726041,-0.895725 c -0.926042,0 -2.30546,0.283876 -2.497008,2.309592 l -0.177763,1.763889 h -0.697288 c -0.418923,0 -0.436841,0.593933 -0.436841,0.785481 0,0.279742 0.05237,0.468535 0.296281,0.468535 h 0.697285 l -0.785479,7.5296 c 0,0.260449 0.176387,0.384471 0.665591,0.384471 h 0.06752 c 0.454755,0 0.698667,-0.124022 0.733118,-0.384471 l 0.78686,-7.5296 h 1.154795 c 0.664214,0 0.785484,-0.855762 0.785484,-0.926042 0,-0.243914 -0.0717,-0.327974 -0.281122,-0.327974 h -1.519975 l 0.157096,-1.591634 c 0.104733,-1.048688 0.509873,-1.22232 1.051444,-1.22232 0.523657,0 0.715197,0.125401 0.785477,0.125401 0.20947,0 0.452,-0.651812 0.452,-0.843359 0,-0.525033 -0.9412,-0.541569 -1.237477,-0.541569 z m -5.765713,0.07304 c -0.453374,0 -0.698664,0.106108 -0.733118,0.38585 l -0.103349,1.029395 c 0,0.314193 0.279739,0.384473 0.733115,0.384473 h 0.208082 c 0.489204,0 0.665594,-0.158475 0.665594,-0.384473 l 0.104732,-1.029395 c 0,-0.279742 -0.177768,-0.38585 -0.665593,-0.38585 z M 32.217946,62.23231 c -0.751033,0 -1.081762,0.172255 -1.081762,0.451996 0,0.07028 -0.0041,0.161231 0.0303,0.264584 l 2.762966,11.213096 c 0.05237,0.243914 0.403765,0.363802 0.963249,0.363802 h 1.252636 c 0.490584,0 0.892969,-0.119888 0.963249,-0.363802 l 1.779048,-7.231944 1.711522,7.231944 c 0.05374,0.243914 0.474046,0.363802 0.96325,0.363802 h 1.274685 c 0.487824,0 0.892968,-0.119888 0.961869,-0.363802 l 2.84565,-11.213096 c 0.01792,-0.103353 0.03583,-0.194304 0.03583,-0.264584 0,-0.279741 -0.336239,-0.451996 -1.085892,-0.451996 h -0.192927 c -0.680752,0 -1.077627,0.173633 -1.164442,0.540191 l -1.364258,5.623773 c -0.157096,0.664214 -0.365178,1.67845 -0.593934,2.638944 -0.208082,-0.978408 -0.439592,-1.97473 -0.598067,-2.638944 l -1.37804,-5.800162 C 40.233977,62.31637 39.904627,62.23231 39.345143,62.23231 H 38.67955 c -0.559481,0 -0.892969,0.08406 -0.96187,0.363802 l -1.430404,5.800162 c -0.157096,0.595313 -0.436838,1.536513 -0.593933,2.513542 -0.210841,-0.977029 -0.40101,-1.918229 -0.541571,-2.513542 L 33.841259,62.772501 C 33.753065,62.405943 33.352055,62.23231 32.669928,62.23231 Z m 53.879914,0.03583 c -0.489204,0 -0.716581,0.14056 -0.733118,0.385851 L 84.17825,74.006267 c 0,0.366561 0.08406,0.519522 0.468535,0.519522 h 6.097818 c 0.435461,0 0.435461,-0.540191 0.435461,-0.941201 0,-0.261828 -0.08544,-0.38585 -0.29628,-0.38585 H 85.80158 L 86.8985,62.653991 c 0,-0.245291 -0.154342,-0.385851 -0.660082,-0.385851 z m -30.369206,2.95038 c -1.134124,0 -2.094618,0.662838 -2.601736,1.325672 -0.103353,-0.435458 -0.143316,-1.132748 -0.701421,-1.132748 -0.436838,0 -1.956816,0.136426 -1.956816,0.555349 0,0.350023 0.213596,0.720715 0.213596,2.46669 v 5.53558 c 0,0.367933 0.312815,0.556726 1.045933,0.556726 h 0.489201 c 0.733118,0 1.045933,-0.188793 1.045933,-0.556726 v -5.608616 c 0.209462,-0.401009 0.682128,-1.008725 1.400087,-1.008725 0.767567,0 1.044554,0.401009 1.044554,1.081761 v 5.53558 c 0,0.367933 0.316946,0.556726 1.05144,0.556726 h 0.489204 c 0.733117,0 1.045934,-0.188793 1.045934,-0.556726 v -5.921431 c 0,-1.937523 -0.818558,-2.829112 -2.565909,-2.829112 z m 49.442626,0.06752 c -3.42304,0 -4.80246,2.607247 -4.80246,5.732639 0,3.126768 2.22002,3.611838 3.94946,3.611838 0.75103,0 2.70922,-0.293526 2.86632,-1.113455 0.0703,-0.367937 0.0841,-0.734494 0.0841,-0.785485 0,-0.210837 -0.051,-0.213593 -0.11989,-0.213593 -0.24529,0 -1.13964,0.857138 -2.71198,0.857138 -1.53652,0 -2.54799,-0.578775 -2.54799,-2.516297 v -0.172254 c 0.36655,0.0689 0.85713,0.119888 1.50343,0.119888 2.37574,0 4.7129,-0.766188 4.7129,-3.19429 0,-0.891593 -0.73312,-2.326129 -2.93385,-2.326129 z m -57.302956,0.03583 c -0.733118,0 -1.045929,0.195683 -1.045929,0.56224 v 8.08495 c 0,0.367933 0.312811,0.556726 1.045929,0.556726 h 0.487825 c 0.734494,0 1.051444,-0.188793 1.051444,-0.556726 v -8.08495 c 0,-0.366557 -0.31695,-0.56224 -1.051444,-0.56224 z m 45.611687,0.03721 c -0.453377,0 -0.698667,0.104729 -0.733119,0.384471 -0.03443,0 -0.717957,6.515365 -0.717957,7.231944 0,1.153418 0.5774,1.655026 1.555803,1.655026 0.314195,0 0.959115,-0.136427 1.045935,-0.571888 0.07028,-0.384472 0.07303,-0.633896 0.07303,-0.650434 0,-0.106109 -0.05237,-0.119888 -0.104732,-0.119888 -0.10473,0 -0.263205,0.08682 -0.474046,0.08682 -0.278363,0 -0.607714,0 -0.607714,-0.71658 0,-0.523653 0.697288,-6.914995 0.697288,-6.914995 0,-0.261828 -0.177768,-0.384471 -0.665593,-0.384471 z m 11.535559,1.185111 c 0.99494,0 1.57096,0.56224 1.57096,1.208539 0,1.798341 -2.86494,1.79972 -3.37068,1.79972 h -1.23886 c 0.22738,-1.624707 1.01148,-3.008259 3.03858,-3.008259"
         style="fill:#e6c751;fill-opacity:1;fill-rule:nonzero;stroke:none;stroke-width:0.352777" />
      <path
         id="path40"
         d="M 31.098977,79.514287 C 55.497144,74.857897 76.237996,74.394876 108.04863,76.751318 80.655987,75.826657 56.628513,76.325505 31.098977,79.514287"
         style="fill:#e6c751;fill-opacity:1;fill-rule:evenodd;stroke:none;stroke-width:0.352777" />
      <path
         id="path42"
         d="m 69.493878,77.717327 c -0.106109,0.3073 -0.208084,0.589799 -0.303168,0.850247 -0.09646,0.260448 -0.191548,0.508497 -0.282501,0.741383 -0.09095,0.23427 -0.181898,0.458891 -0.272849,0.669727 -0.09095,0.213598 -0.183279,0.424439 -0.278365,0.633899 h -0.380339 c -0.09508,-0.20946 -0.187412,-0.420301 -0.276987,-0.633899 -0.09095,-0.210836 -0.181898,-0.435457 -0.275606,-0.669727 -0.0937,-0.232886 -0.18879,-0.480935 -0.285252,-0.741383 -0.09922,-0.260448 -0.199819,-0.542947 -0.30317,-0.850247 h 0.447865 c 0.150204,0.440971 0.297656,0.864026 0.443728,1.27055 0.14469,0.40652 0.29352,0.788237 0.446481,1.143773 0.151585,-0.354158 0.301792,-0.733118 0.446487,-1.142397 0.14469,-0.4079 0.290767,-0.830955 0.438217,-1.271926 z m 0.350022,0 h 0.406519 v 2.895256 H 69.8439 Z m 3.451982,1.445559 c 0,0.250804 -0.03996,0.468535 -0.118507,0.654569 -0.07717,0.186034 -0.187415,0.337619 -0.329353,0.458885 -0.141939,0.121269 -0.311436,0.210841 -0.509873,0.271473 -0.197059,0.06064 -0.41479,0.08957 -0.650436,0.08957 -0.118512,0 -0.246669,-0.0041 -0.387228,-0.01379 -0.141939,-0.01101 -0.268717,-0.0303 -0.383093,-0.0565 v -2.807062 c 0.114376,-0.02893 0.241154,-0.04685 0.383093,-0.0565 0.140559,-0.0096 0.268716,-0.01379 0.387228,-0.01379 0.235646,0 0.453377,0.02893 0.650436,0.08819 0.198437,0.06063 0.367934,0.150206 0.509873,0.271473 0.141938,0.121266 0.252182,0.274233 0.329353,0.458885 0.07854,0.186039 0.118507,0.403765 0.118507,0.654569 z m -1.575096,1.120344 c 0.384471,0 0.671105,-0.09922 0.859896,-0.296275 0.188793,-0.194305 0.283876,-0.469911 0.283876,-0.824069 0,-0.354153 -0.09508,-0.628385 -0.283876,-0.825444 -0.188791,-0.195681 -0.475425,-0.293521 -0.859896,-0.293521 -0.115753,0 -0.202571,0 -0.265962,0.0028 -0.06201,0.0041 -0.106109,0.0055 -0.130913,0.0096 v 2.214509 c 0.02479,0.0028 0.0689,0.0041 0.130913,0.0069 0.06339,0.0041 0.150209,0.0055 0.265962,0.0055 z m 3.975639,0.329353 c -0.04685,-0.125402 -0.09233,-0.248047 -0.133667,-0.370692 -0.04134,-0.11989 -0.08544,-0.243914 -0.128159,-0.367935 h -1.31327 l -0.261826,0.738627 h -0.423058 c 0.111622,-0.305924 0.214974,-0.589801 0.314192,-0.850249 0.09646,-0.26045 0.192924,-0.507119 0.286634,-0.741384 0.0937,-0.232891 0.184653,-0.456131 0.276982,-0.669729 0.09095,-0.213595 0.186039,-0.424434 0.288012,-0.633894 h 0.370692 c 0.100597,0.20946 0.197059,0.420299 0.289388,0.633894 0.09095,0.213598 0.184658,0.436838 0.278365,0.669729 0.0937,0.234265 0.188788,0.480934 0.286631,0.741384 0.09646,0.260448 0.201195,0.544325 0.312812,0.850249 z m -0.37896,-1.073491 c -0.08957,-0.242536 -0.177765,-0.4768 -0.265959,-0.704181 -0.08819,-0.227375 -0.179147,-0.445103 -0.272851,-0.653187 -0.09922,0.208084 -0.191548,0.425812 -0.278363,0.653187 -0.0882,0.227381 -0.175014,0.461645 -0.260451,0.704181 z m 4.35736,-0.376206 c 0,0.250804 -0.03997,0.468535 -0.118512,0.654569 -0.07717,0.186034 -0.187413,0.337619 -0.329354,0.458885 -0.141935,0.121269 -0.311435,0.210841 -0.509873,0.271473 -0.197059,0.06064 -0.41479,0.08957 -0.650433,0.08957 -0.117134,0 -0.246671,-0.0041 -0.387228,-0.01379 -0.141939,-0.01101 -0.268717,-0.0303 -0.383096,-0.0565 v -2.807062 c 0.114379,-0.02893 0.241157,-0.04685 0.383096,-0.0565 0.140557,-0.0096 0.270094,-0.01379 0.387228,-0.01379 0.235643,0 0.453374,0.02893 0.650433,0.08819 0.198438,0.06063 0.367938,0.150206 0.509873,0.271473 0.141941,0.121266 0.252183,0.274233 0.329354,0.458885 0.07855,0.186039 0.118512,0.403765 0.118512,0.654569 z m -1.575099,1.120344 c 0.384474,0 0.671105,-0.09922 0.859896,-0.296275 0.18879,-0.194305 0.283876,-0.469911 0.283876,-0.824069 0,-0.354153 -0.09509,-0.628385 -0.283876,-0.825444 -0.188791,-0.195681 -0.475422,-0.293521 -0.859896,-0.293521 -0.115755,0 -0.202573,0 -0.265959,0.0028 -0.06202,0.0041 -0.106114,0.0055 -0.130916,0.0096 v 2.214509 c 0.02479,0.0028 0.0689,0.0041 0.130916,0.0069 0.06339,0.0041 0.150204,0.0055 0.265959,0.0055 z m 2.120799,0.329353 v -2.895256 h 1.768025 v 0.347263 h -1.361503 v 0.861274 h 1.211297 v 0.337619 h -1.211297 v 1.001835 h 1.466231 v 0.347265 z m 4.91684,-1.424892 h 0.405146 v 1.354614 c -0.03306,0.0096 -0.07993,0.02341 -0.143317,0.03583 -0.06201,0.01516 -0.136427,0.02893 -0.217731,0.04272 -0.0813,0.01516 -0.170876,0.02617 -0.268719,0.03583 -0.09784,0.0096 -0.197056,0.01379 -0.297656,0.01379 -0.202571,0 -0.387226,-0.03305 -0.55535,-0.100597 C 83.893,80.503728 83.748305,80.407273 83.629793,80.277736 83.509905,80.149579 83.417576,79.99248 83.35143,79.806446 83.28666,79.620413 83.25359,79.406815 83.25359,79.1629 c 0,-0.242533 0.03721,-0.456131 0.111619,-0.644919 0.07304,-0.188793 0.172255,-0.345887 0.299035,-0.474046 0.124024,-0.128156 0.270092,-0.225999 0.439592,-0.293521 0.168124,-0.06614 0.348644,-0.09922 0.540192,-0.09922 0.130916,0 0.248047,0.0083 0.350022,0.02479 0.100598,0.01654 0.188791,0.03583 0.260448,0.05788 0.07304,0.02341 0.132292,0.04548 0.177769,0.06752 0.04685,0.02342 0.07717,0.03996 0.0937,0.04961 l -0.129532,0.338998 c -0.08131,-0.05374 -0.187415,-0.09646 -0.321085,-0.130913 -0.13367,-0.03446 -0.271473,-0.05237 -0.409278,-0.05237 -0.148826,0 -0.282499,0.02617 -0.403765,0.07855 -0.121267,0.05375 -0.224621,0.129537 -0.308682,0.230135 -0.08544,0.100594 -0.151582,0.221861 -0.198434,0.365178 -0.04823,0.143316 -0.07166,0.304548 -0.07166,0.482314 0,0.173633 0.02066,0.330729 0.06063,0.471289 0.03996,0.143317 0.101973,0.264583 0.183277,0.366559 0.08131,0.101973 0.18328,0.180523 0.305927,0.235643 0.119888,0.05512 0.263203,0.08406 0.427191,0.08406 0.117134,0 0.217731,-0.0055 0.300414,-0.01929 0.0813,-0.01241 0.140559,-0.02479 0.176387,-0.03583 z m 2.921442,1.424892 c -0.04823,-0.125402 -0.09233,-0.248047 -0.135046,-0.370692 -0.04134,-0.11989 -0.08406,-0.243914 -0.128159,-0.367935 H 86.48371 l -0.263207,0.738627 h -0.423058 c 0.111622,-0.305924 0.216355,-0.589801 0.314195,-0.850249 0.09646,-0.26045 0.192923,-0.507119 0.286631,-0.741384 0.0937,-0.232891 0.186034,-0.456131 0.276987,-0.669729 0.09095,-0.213595 0.187412,-0.424434 0.288007,-0.633894 h 0.372073 c 0.100597,0.20946 0.19568,0.420299 0.288009,0.633894 0.09095,0.213598 0.184656,0.436838 0.278363,0.669729 0.0937,0.234265 0.188791,0.480934 0.286634,0.741384 0.09784,0.260448 0.201192,0.544325 0.312814,0.850249 z m -0.380336,-1.073491 c -0.08958,-0.242536 -0.177769,-0.4768 -0.265965,-0.704181 -0.08682,-0.227375 -0.177768,-0.445103 -0.272851,-0.653187 -0.09922,0.208084 -0.191548,0.425812 -0.278363,0.653187 -0.08819,0.227381 -0.175009,0.461645 -0.260448,0.704181 z m 3.144681,1.073491 c -0.06063,-0.103351 -0.130916,-0.219109 -0.210841,-0.347265 -0.07855,-0.126778 -0.165365,-0.260451 -0.256315,-0.398251 -0.09095,-0.137806 -0.187413,-0.276987 -0.285253,-0.418926 -0.09922,-0.141938 -0.198437,-0.279741 -0.294899,-0.412033 -0.09922,-0.132291 -0.192929,-0.257693 -0.283877,-0.374827 -0.09233,-0.117131 -0.177768,-0.220485 -0.254939,-0.308679 v 2.259981 h -0.398251 v -2.895256 h 0.322461 c 0.130911,0.140557 0.271473,0.301787 0.420301,0.486445 0.147452,0.186036 0.296278,0.377581 0.442349,0.571888 0.146074,0.197057 0.285255,0.38998 0.413414,0.580152 0.129535,0.188791 0.239779,0.356913 0.327972,0.505741 v -2.144226 h 0.396875 v 2.895256 z m 2.942111,0 c -0.04823,-0.125402 -0.09233,-0.248047 -0.135048,-0.370692 -0.04134,-0.11989 -0.08406,-0.243914 -0.128157,-0.367935 h -1.311891 l -0.263208,0.738627 h -0.423055 c 0.11162,-0.305924 0.216352,-0.589801 0.31419,-0.850249 0.09646,-0.26045 0.192929,-0.507119 0.286634,-0.741384 0.09371,-0.232891 0.186033,-0.456131 0.276987,-0.669729 0.09095,-0.213595 0.187412,-0.424434 0.288006,-0.633894 h 0.370692 c 0.100598,0.20946 0.197062,0.420299 0.289391,0.633894 0.09095,0.213598 0.184655,0.436838 0.278363,0.669729 0.0937,0.234265 0.188793,0.480934 0.286631,0.741384 0.09784,0.260448 0.201194,0.544325 0.312817,0.850249 z m -0.380338,-1.073491 c -0.08957,-0.242536 -0.177769,-0.4768 -0.265962,-0.704181 -0.08682,-0.227375 -0.179144,-0.445103 -0.272852,-0.653187 -0.09922,0.208084 -0.191548,0.425812 -0.278363,0.653187 -0.0882,0.227381 -0.175011,0.461645 -0.26045,0.704181 z m 3.538802,-0.376206 c 0,0.250804 -0.03996,0.468535 -0.118512,0.654569 -0.07717,0.186034 -0.187413,0.337619 -0.329349,0.458885 -0.141941,0.121269 -0.311441,0.210841 -0.509878,0.271473 -0.197056,0.06064 -0.414787,0.08957 -0.650433,0.08957 -0.117134,0 -0.246669,-0.0041 -0.387226,-0.01379 -0.141941,-0.01101 -0.268719,-0.0303 -0.383095,-0.0565 v -2.807062 c 0.114376,-0.02893 0.241154,-0.04685 0.383095,-0.0565 0.140557,-0.0096 0.270092,-0.01379 0.387226,-0.01379 0.235646,0 0.453377,0.02893 0.650433,0.08819 0.198437,0.06063 0.367937,0.150206 0.509878,0.271473 0.141936,0.121266 0.25218,0.274233 0.329349,0.458885 0.07855,0.186039 0.118512,0.403765 0.118512,0.654569 z m -1.575099,1.120344 c 0.384474,0 0.671107,-0.09922 0.859896,-0.296275 0.188793,-0.194305 0.283876,-0.469911 0.283876,-0.824069 0,-0.354153 -0.09508,-0.628385 -0.283876,-0.825444 -0.188789,-0.195681 -0.475422,-0.293521 -0.859896,-0.293521 -0.115753,0 -0.202573,0 -0.265959,0.0028 -0.06201,0.0041 -0.106109,0.0055 -0.130916,0.0096 v 2.214509 c 0.02479,0.0028 0.06891,0.0041 0.130916,0.0069 0.06339,0.0041 0.150206,0.0055 0.265959,0.0055 z m 2.009182,-1.120344 c 0,-0.246668 0.03583,-0.465775 0.110244,-0.655944 0.07441,-0.188794 0.175009,-0.347269 0.301786,-0.474046 0.126781,-0.126781 0.272852,-0.221864 0.440973,-0.285256 0.168122,-0.06477 0.347266,-0.09646 0.53606,-0.09646 0.187412,0 0.363802,0.03168 0.530542,0.09646 0.165365,0.06339 0.311436,0.158475 0.436838,0.285256 0.124026,0.126777 0.223245,0.285252 0.297657,0.474046 0.073,0.190169 0.11024,0.409276 0.11024,0.655944 0,0.24805 -0.0372,0.467156 -0.11024,0.655947 -0.07441,0.190169 -0.173631,0.347266 -0.297657,0.474046 -0.125402,0.126778 -0.271473,0.223242 -0.436838,0.286631 -0.16674,0.06477 -0.34313,0.09646 -0.530542,0.09646 -0.188794,0 -0.367938,-0.03168 -0.53606,-0.09646 -0.168121,-0.06339 -0.314192,-0.159853 -0.440973,-0.286631 -0.126777,-0.12678 -0.227375,-0.283877 -0.301786,-0.474046 -0.07442,-0.188791 -0.110244,-0.407897 -0.110244,-0.655947 z m 0.424434,0 c 0,0.17639 0.02204,0.334865 0.06752,0.478179 0.0441,0.143317 0.107485,0.264583 0.19017,0.365183 0.0813,0.100595 0.181898,0.177763 0.30041,0.232886 0.118512,0.05374 0.250804,0.0813 0.398256,0.0813 0.148826,0 0.281117,-0.02755 0.398251,-0.0813 0.117136,-0.05512 0.216355,-0.132291 0.299035,-0.232886 0.0813,-0.1006 0.144695,-0.221866 0.190169,-0.365183 0.0441,-0.143314 0.06615,-0.301789 0.06615,-0.478179 0,-0.175009 -0.02204,-0.334864 -0.06615,-0.478179 -0.04547,-0.143317 -0.108865,-0.264583 -0.190169,-0.365178 -0.08268,-0.100599 -0.181899,-0.177768 -0.299035,-0.232891 -0.117134,-0.05237 -0.249425,-0.07992 -0.398251,-0.07992 -0.147452,0 -0.279744,0.02755 -0.398256,0.07992 -0.118512,0.05512 -0.219107,0.132292 -0.30041,0.232891 -0.08268,0.100595 -0.146072,0.221861 -0.19017,0.365178 -0.04548,0.143315 -0.06752,0.30317 -0.06752,0.478179 z m 4.303616,0.2384 c 0.0455,0.0565 0.10197,0.128157 0.17087,0.21911 0.0675,0.09095 0.13781,0.190169 0.21084,0.300413 0.0717,0.110241 0.14332,0.225996 0.2136,0.344509 0.0717,0.11989 0.13229,0.235643 0.1819,0.347265 h -0.44235 c -0.0551,-0.104732 -0.11713,-0.212219 -0.1819,-0.322463 -0.0648,-0.107485 -0.13229,-0.210836 -0.19844,-0.311436 -0.0675,-0.09784 -0.13366,-0.190167 -0.19843,-0.276982 -0.0648,-0.08544 -0.12403,-0.159856 -0.17777,-0.226002 -0.0372,0.0041 -0.073,0.0055 -0.11024,0.0055 -0.0372,0 -0.0758,0 -0.11438,0 h -0.3638 v 1.131369 h -0.40653 V 77.76003 c 0.11576,-0.02893 0.24254,-0.04685 0.3831,-0.0565 0.14056,-0.0096 0.2701,-0.01378 0.38723,-0.01378 0.40652,0 0.71658,0.07579 0.92879,0.228756 0.21222,0.152961 0.31971,0.381714 0.31971,0.684882 0,0.192926 -0.051,0.356912 -0.15158,0.491964 -0.10198,0.136421 -0.25218,0.2384 -0.45062,0.305921 z m -0.61323,-1.357365 c -0.17363,0 -0.30592,0.0041 -0.39687,0.01241 v 1.09003 h 0.288 c 0.13781,0 0.26321,-0.0069 0.37621,-0.02066 0.11162,-0.01378 0.20533,-0.03996 0.2825,-0.07993 0.0758,-0.03858 0.13504,-0.0937 0.17777,-0.163986 0.0413,-0.07166 0.0606,-0.165365 0.0606,-0.282496 0,-0.108868 -0.0193,-0.199818 -0.0606,-0.271478 -0.0427,-0.07304 -0.0992,-0.129532 -0.1695,-0.170873 -0.0717,-0.04134 -0.15572,-0.07166 -0.25218,-0.0882 -0.0951,-0.01791 -0.19844,-0.02479 -0.30593,-0.02479 z m 1.77491,2.568662 v -2.895256 h 1.76803 v 0.347263 h -1.36288 v 0.861274 h 1.21267 v 0.337619 h -1.21267 v 1.001835 h 1.46623 v 0.347265 z m 3.00275,-0.288009 c 0.42443,0 0.63665,-0.143317 0.63665,-0.434084 0,-0.08819 -0.0193,-0.165364 -0.0579,-0.228756 -0.0372,-0.06201 -0.0882,-0.115752 -0.15296,-0.162605 -0.0634,-0.04548 -0.13643,-0.08406 -0.21773,-0.118512 -0.0827,-0.03305 -0.1695,-0.06615 -0.26183,-0.09922 -0.10611,-0.03721 -0.2067,-0.07855 -0.30041,-0.125402 -0.0951,-0.04548 -0.17639,-0.09922 -0.24667,-0.16261 -0.0689,-0.06201 -0.1254,-0.136424 -0.16537,-0.223239 -0.04,-0.08682 -0.0606,-0.19017 -0.0606,-0.312817 0,-0.253558 0.0868,-0.450617 0.25907,-0.592556 0.17226,-0.141938 0.41066,-0.213593 0.71521,-0.213593 0.17501,0 0.33486,0.01929 0.47818,0.05512 0.14331,0.03858 0.24666,0.07992 0.31419,0.124023 l -0.12816,0.33073 c -0.0579,-0.03721 -0.14607,-0.07304 -0.26045,-0.10749 -0.11713,-0.03446 -0.25218,-0.05237 -0.40376,-0.05237 -0.0786,0 -0.15021,0.0083 -0.21773,0.02479 -0.0675,0.01791 -0.1254,0.04272 -0.17502,0.07579 -0.051,0.03305 -0.0896,0.07579 -0.11988,0.126778 -0.0289,0.05237 -0.0427,0.113001 -0.0427,0.183282 0,0.07717 0.0152,0.143317 0.0455,0.195678 0.0303,0.05375 0.073,0.1006 0.12953,0.140562 0.0551,0.03996 0.11989,0.07717 0.19431,0.110242 0.073,0.03447 0.15434,0.06753 0.24391,0.100599 0.1254,0.04961 0.23978,0.09922 0.34589,0.148826 0.10335,0.05099 0.1943,0.110244 0.27147,0.180523 0.0758,0.0689 0.13505,0.151585 0.17639,0.248049 0.0413,0.09646 0.062,0.213593 0.062,0.35002 0,0.253558 -0.0923,0.44786 -0.27699,0.584287 -0.18603,0.136427 -0.44648,0.205328 -0.7841,0.205328 -0.113,0 -0.21911,-0.0069 -0.31557,-0.02342 -0.0951,-0.01516 -0.1819,-0.03447 -0.25632,-0.05512 -0.0744,-0.02066 -0.13918,-0.04272 -0.1943,-0.06615 -0.0537,-0.02342 -0.0965,-0.0441 -0.12816,-0.06064 l 0.12265,-0.333483 c 0.0634,0.03583 0.16123,0.07717 0.29214,0.119888 0.13092,0.04548 0.29077,0.06752 0.47956,0.06752"
         style="fill:#e6c751;fill-opacity:1;fill-rule:evenodd;stroke:none;stroke-width:0.352777" />
      <path
         id="path44"
         d="m 76.480531,65.637443 c -3.10334,0 -4.353221,2.361959 -4.353221,5.195206 0,2.834623 2.011934,3.27284 3.580143,3.27284 0.679374,0 2.454286,-0.264585 2.596224,-1.008725 0.06477,-0.333485 0.07717,-0.665594 0.07717,-0.712446 0,-0.19017 -0.04686,-0.192927 -0.108865,-0.192927 -0.221864,0 -1.03215,0.777216 -2.457043,0.777216 -1.393195,0 -2.30959,-0.525032 -2.30959,-2.282031 v -0.155719 c 0.330729,0.06339 0.775832,0.108865 1.361498,0.108865 2.153875,0 4.271923,-0.694531 4.271923,-2.895257 0,-0.807533 -0.664215,-2.107022 -2.658239,-2.107022 z m -0.141938,1.139638 c 0.902618,0 1.423517,0.509875 1.423517,1.095541 0,1.630218 -2.596224,1.631595 -3.055112,1.631595 h -1.123104 c 0.206706,-1.473121 0.917776,-2.727136 2.754699,-2.727136 z m 0,0"
         style="fill:none;stroke:#e6ca59;stroke-width:0.860586;stroke-linecap:round;stroke-linejoin:round;stroke-miterlimit:22.9256;stroke-opacity:1" />
      <path
         id="path46"
         d="m 76.479153,65.637443 c -3.10334,0 -4.351846,2.363336 -4.351846,5.196582 0,2.833247 2.011937,3.272839 3.578768,3.272839 0.680749,0 2.455661,-0.265962 2.597602,-1.010101 0.06477,-0.332109 0.07579,-0.664214 0.07579,-0.711066 0,-0.190172 -0.04548,-0.194307 -0.107487,-0.194307 -0.221864,0 -1.03215,0.778595 -2.458421,0.778595 -1.393198,0 -2.30959,-0.525036 -2.30959,-2.282031 v -0.15572 c 0.332105,0.06201 0.777211,0.108864 1.362879,0.108864 2.152494,0 4.271918,-0.694531 4.271918,-2.895258 0,-0.808909 -0.664216,-2.108397 -2.659613,-2.108397 z m -0.140563,1.141014 c 0.90124,0 1.423517,0.508497 1.423517,1.094165 0,1.630217 -2.597603,1.631597 -3.055112,1.631597 h -1.123101 c 0.206706,-1.471747 0.917774,-2.725762 2.754696,-2.725762"
         style="fill:#e6c751;fill-opacity:1;fill-rule:nonzero;stroke:none;stroke-width:0.352777" />
      <path
         id="path48"
         d="m 63.89353,62.104152 c -0.733116,0 -1.044554,0.194304 -1.04593,0.56224 l -0.01378,11.188293 c 0,0.367936 0.312814,0.556725 1.045932,0.556725 h 0.208082 c 0.559485,0 0.927423,-0.06752 1.015616,-0.451996 l 0.17639,-0.749653 c 0.402384,0.751032 1.258147,1.306382 2.341288,1.306382 1.886532,0 3.261815,-1.674319 3.261815,-4.714268 0,-2.847029 -1.325674,-4.697734 -3.683498,-4.697734 -0.81993,0 -1.412489,0.279743 -1.779045,0.541571 l 0.01378,-2.97932 c 0.0013,-0.367936 -0.31695,-0.56224 -1.051444,-0.56224 z m 2.750566,5.045 c 1.099671,0 1.621948,0.905369 1.621948,2.652723 0,1.693608 -0.454752,2.601736 -1.415245,2.601736 -0.664213,0 -1.116211,-0.487828 -1.430401,-1.029395 v -3.892959 c 0.279738,-0.157095 0.682127,-0.332105 1.223698,-0.332105"
         style="fill:#e6c751;fill-opacity:1;fill-rule:nonzero;stroke:none;stroke-width:0.352777" />
    </g>
  </g>
</svg>
