<?xml version="1.0" encoding="UTF-8" standalone="no"?>
<svg
   xmlns:dc="http://purl.org/dc/elements/1.1/"
   xmlns:cc="http://creativecommons.org/ns#"
   xmlns:rdf="http://www.w3.org/1999/02/22-rdf-syntax-ns#"
   xmlns:svg="http://www.w3.org/2000/svg"
   xmlns="http://www.w3.org/2000/svg"
   xmlns:sodipodi="http://sodipodi.sourceforge.net/DTD/sodipodi-0.dtd"
   xmlns:inkscape="http://www.inkscape.org/namespaces/inkscape"
   sodipodi:docname="dibujo.svg"
   inkscape:version="1.0 (4035a4fb49, 2020-05-01)"
   id="svg251"
   version="1.1"
   viewBox="0 0 87 48"
   height="48mm"
   width="87mm">
  <defs
     id="defs245" />
  <sodipodi:namedview
     inkscape:pagecheckerboard="false"
     inkscape:window-maximized="1"
     inkscape:window-y="41"
     inkscape:window-x="-9"
     inkscape:window-height="1001"
     inkscape:window-width="1920"
     showgrid="false"
     inkscape:document-rotation="0"
     inkscape:current-layer="g284"
     inkscape:document-units="mm"
     inkscape:cy="445.32255"
     inkscape:cx="92.659856"
     inkscape:zoom="0.7"
     inkscape:pageshadow="2"
     inkscape:pageopacity="0"
     borderopacity="1.0"
     bordercolor="#666666"
     pagecolor="#3e4a48"
     id="base" />
  <metadata
     id="metadata248">
    <rdf:RDF>
      <cc:Work
         rdf:about="">
        <dc:format>image/svg+xml</dc:format>
        <dc:type
           rdf:resource="http://purl.org/dc/dcmitype/StillImage" />
        <dc:title></dc:title>
      </cc:Work>
    </rdf:RDF>
  </metadata>
  <g
     id="layer1"
     inkscape:groupmode="layer"
     inkscape:label="Capa 1">
    <g
       transform="translate(-58.586309,-117.17262)"
       id="g284">
      <path
         id="path161"
         d="m 63.496064,152.8965 c 24.396786,-4.65639 45.137636,-5.11941 76.949646,-2.76297 -27.39401,-0.92466 -51.42149,-0.42581 -76.949646,2.76297"
         style="fill:#ffffff;fill-opacity:1;fill-rule:evenodd;stroke:none;stroke-width:0.352777" />
      <path
         id="path163"
         d="m 80.374276,135.54562 c -0.733115,0 -1.04593,0.19568 -1.04593,0.56224 v 1.41387 c 0,0.36794 0.312815,0.55811 1.04593,0.55811 h 0.487828 c 0.734494,0 1.05144,-0.19017 1.05144,-0.55811 v -1.41387 c 0,-0.36656 -0.316946,-0.56224 -1.05144,-0.56224 z m 51.726034,-0.8971 c -0.92604,0 -2.30545,0.28525 -2.49838,2.31097 l -0.17639,1.76251 h -0.69728 c -0.41892,0 -0.43684,0.59394 -0.43684,0.78686 0,0.27974 0.0524,0.46716 0.29628,0.46716 h 0.69728 l -0.78548,7.5296 c 0,0.26044 0.17639,0.38447 0.6656,0.38447 h 0.0675 c 0.45337,0 0.69866,-0.12403 0.73311,-0.38447 l 0.78686,-7.5296 h 1.1548 c 0.66421,0 0.78548,-0.85576 0.78548,-0.92605 0,-0.24391 -0.0717,-0.32797 -0.28112,-0.32797 h -1.51998 l 0.1571,-1.59025 c 0.10473,-1.04869 0.50987,-1.2237 1.05144,-1.2237 0.52366,0 0.71521,0.1254 0.78411,0.1254 0.21084,0 0.45337,-0.65181 0.45337,-0.84336 0,-0.52365 -0.9412,-0.54157 -1.23748,-0.54157 z m -5.76571,0.073 c -0.45337,0 -0.69866,0.10611 -0.73311,0.38585 l -0.10335,1.03077 c 0,0.31282 0.27836,0.38448 0.73311,0.38448 h 0.20809 c 0.4892,0 0.66559,-0.15848 0.66559,-0.38448 l 0.10473,-1.03077 c 0,-0.27974 -0.17776,-0.38585 -0.66559,-0.38585 z m -61.610703,0.83922 c -0.751029,0 -1.081758,0.17226 -1.081758,0.452 0,0.0689 -0.0041,0.15985 0.0303,0.26458 l 2.762966,11.2131 c 0.05237,0.24391 0.403768,0.36242 0.963249,0.36242 h 1.252636 c 0.490583,0 0.892969,-0.11851 0.963249,-0.36242 l 1.779048,-7.23195 1.711522,7.23195 c 0.05375,0.24391 0.474046,0.36242 0.96325,0.36242 h 1.274685 c 0.487828,0 0.892968,-0.11851 0.961873,-0.36242 l 2.845651,-11.2131 c 0.01792,-0.10473 0.03583,-0.19568 0.03583,-0.26458 0,-0.27974 -0.336243,-0.452 -1.085896,-0.452 h -0.192923 c -0.680752,0 -1.079006,0.17363 -1.165821,0.54019 l -1.36288,5.62378 c -0.157099,0.66421 -0.365181,1.67707 -0.593936,2.63894 -0.208083,-0.97841 -0.439593,-1.97473 -0.598068,-2.63894 l -1.378038,-5.80154 c -0.07028,-0.27975 -0.398254,-0.36243 -0.957735,-0.36243 h -0.665593 c -0.559484,0 -0.892968,0.0827 -0.961869,0.36243 l -1.430405,5.80154 c -0.157095,0.59393 -0.436838,1.53513 -0.593937,2.51354 -0.210837,-0.97841 -0.402385,-1.91961 -0.541566,-2.51354 l -1.310517,-5.62378 c -0.08819,-0.36656 -0.4892,-0.54019 -1.171331,-0.54019 z m 53.879913,0.0345 c -0.4892,0 -0.71658,0.14194 -0.73311,0.38723 l -1.1865,11.35227 c 0,0.36519 0.0841,0.51815 0.46854,0.51815 h 6.09782 c 0.43546,0 0.43546,-0.53881 0.43546,-0.93982 0,-0.26321 -0.0868,-0.38585 -0.29628,-0.38585 h -5.0822 l 1.09691,-10.54475 c 0,-0.24529 -0.15434,-0.38723 -0.66008,-0.38723 z m -30.3692,2.95038 c -1.13551,0 -2.09462,0.66283 -2.60174,1.32705 -0.10335,-0.43684 -0.14332,-1.13413 -0.70142,-1.13413 -0.43684,0 -1.956814,0.1378 -1.956814,0.55673 0,0.35002 0.213597,0.71933 0.213597,2.46669 v 5.53558 c 0,0.36656 0.312811,0.55534 1.045927,0.55534 h 0.48921 c 0.73311,0 1.04593,-0.18878 1.04593,-0.55534 v -5.60862 c 0.20946,-0.40239 0.68213,-1.00872 1.40008,-1.00872 0.76757,0 1.04456,0.39963 1.04456,1.08176 v 5.53558 c 0,0.36656 0.31695,0.55534 1.05144,0.55534 h 0.4892 c 0.73312,0 1.04593,-0.18878 1.04593,-0.55534 v -5.92145 c 0,-1.9389 -0.81855,-2.83049 -2.5659,-2.83049 z m 49.44263,0.0689 c -3.42305,0 -4.80246,2.60725 -4.80246,5.73263 0,3.12678 2.22001,3.61047 3.94945,3.61047 0.75103,0 2.70923,-0.29215 2.86632,-1.11346 0.0703,-0.36656 0.0841,-0.73312 0.0841,-0.78548 0,-0.20946 -0.051,-0.2136 -0.11989,-0.2136 -0.24529,0 -1.13964,0.85852 -2.71198,0.85852 -1.53651,0 -2.54799,-0.57877 -2.54799,-2.51768 v -0.17225 c 0.36656,0.0703 0.85714,0.11989 1.50344,0.11989 2.37574,0 4.71289,-0.76619 4.71289,-3.19429 0,-0.89159 -0.73312,-2.32475 -2.93384,-2.32475 z m -57.302964,0.0345 c -0.733115,0 -1.04593,0.19568 -1.04593,0.56361 v 8.08495 c 0,0.36656 0.312815,0.55535 1.04593,0.55535 h 0.487828 c 0.734494,0 1.05144,-0.18879 1.05144,-0.55535 v -8.08495 c 0,-0.36793 -0.316946,-0.56361 -1.05144,-0.56361 z m 45.611684,0.0372 c -0.45337,0 -0.69866,0.1061 -0.73311,0.38447 -0.0345,0 -0.71796,6.51674 -0.71796,7.23194 0,1.15342 0.5774,1.65503 1.5558,1.65503 0.3142,0 0.95912,-0.13505 1.04593,-0.57189 0.0703,-0.38447 0.073,-0.63252 0.073,-0.65043 0,-0.10474 -0.0524,-0.11989 -0.10473,-0.11989 -0.10473,0 -0.2632,0.0882 -0.47404,0.0882 -0.27837,0 -0.60772,-0.001 -0.60772,-0.71796 0,-0.52366 0.69729,-6.915 0.69729,-6.915 0,-0.26182 -0.17776,-0.38447 -0.66697,-0.38447 z m 11.53556,1.18649 c 0.99494,0 1.57096,0.56086 1.57096,1.20716 0,1.79972 -2.86494,1.80109 -3.37068,1.80109 h -1.23885 c 0.22737,-1.6247 1.01148,-3.00825 3.03857,-3.00825"
         style="fill:#ffffff;fill-opacity:1;fill-rule:nonzero;stroke:none;stroke-width:0.352777" />
      <path
         id="path165"
         d="m 63.604931,152.84138 c 24.396789,-4.65501 45.139019,-5.11941 76.949649,-2.76297 -27.39402,-0.92466 -51.42012,-0.42443 -76.949649,2.76297"
         style="fill:#ffffff;fill-opacity:1;fill-rule:evenodd;stroke:none;stroke-width:0.352777" />
      <path
         id="path167"
         d="m 101.99983,151.0458 c -0.10611,0.30592 -0.20808,0.5898 -0.30317,0.85025 -0.0965,0.26044 -0.19155,0.50711 -0.2825,0.74138 -0.0909,0.23427 -0.1819,0.45751 -0.27285,0.66973 -0.091,0.21359 -0.18328,0.42443 -0.27836,0.6339 h -0.38034 c -0.0951,-0.20947 -0.18742,-0.42031 -0.27699,-0.6339 -0.0909,-0.21222 -0.1819,-0.43546 -0.2756,-0.66973 -0.0937,-0.23427 -0.18879,-0.48094 -0.28526,-0.74138 -0.0992,-0.26045 -0.19981,-0.54433 -0.30317,-0.85025 h 0.44787 c 0.1502,0.43959 0.29765,0.86403 0.44372,1.27055 0.14332,0.40652 0.29352,0.78686 0.44649,1.14377 0.15158,-0.35416 0.30179,-0.7345 0.44648,-1.1424 0.1447,-0.40789 0.29077,-0.83233 0.43822,-1.27192 z m 0.35002,0 h 0.40652 v 2.89526 h -0.40652 z m 3.45199,1.44556 c 0,0.24942 -0.04,0.46715 -0.11851,0.65319 -0.0772,0.18603 -0.18742,0.339 -0.32936,0.46026 -0.14193,0.11989 -0.31143,0.21084 -0.50987,0.2701 -0.19706,0.0606 -0.41479,0.0909 -0.65181,0.0909 -0.11713,0 -0.24529,-0.005 -0.38723,-0.0138 -0.14056,-0.011 -0.26734,-0.0303 -0.38172,-0.0579 v -2.80569 c 0.11438,-0.0289 0.24116,-0.0482 0.38172,-0.0579 0.14194,-0.008 0.2701,-0.0138 0.38723,-0.0138 0.23702,0 0.45475,0.0303 0.65181,0.0896 0.19844,0.0593 0.36794,0.15021 0.50987,0.2701 0.14194,0.12264 0.25218,0.27561 0.32936,0.46026 0.0786,0.18604 0.11851,0.40376 0.11851,0.65457 z m -1.5751,1.11897 c 0.38447,0 0.6711,-0.0978 0.85989,-0.29491 0.18879,-0.19568 0.28388,-0.46991 0.28388,-0.82406 0,-0.35416 -0.0951,-0.62839 -0.28388,-0.82545 -0.18879,-0.19706 -0.47542,-0.2949 -0.85989,-0.2949 -0.11576,0 -0.20257,10e-4 -0.26596,0.004 -0.062,0.003 -0.10611,0.005 -0.13092,0.008 v 2.21451 c 0.0248,0.003 0.0689,0.006 0.13092,0.008 0.0634,0.003 0.1502,0.004 0.26596,0.004 z m 3.97564,0.33073 c -0.0469,-0.12541 -0.0923,-0.24943 -0.13367,-0.3707 -0.0413,-0.12126 -0.0854,-0.24391 -0.12816,-0.36793 h -1.31327 l -0.26183,0.73863 h -0.42305 c 0.11162,-0.30731 0.21497,-0.58981 0.31419,-0.85026 0.0965,-0.26044 0.19293,-0.50849 0.28663,-0.74138 0.0923,-0.23289 0.18466,-0.45751 0.27699,-0.66973 0.0909,-0.21359 0.18603,-0.42443 0.28663,-0.63389 h 0.37207 c 0.1006,0.20946 0.19706,0.4203 0.28939,0.63389 0.091,0.21222 0.18465,0.43684 0.27836,0.66973 0.0937,0.23289 0.18742,0.48094 0.28663,0.74138 0.0965,0.26045 0.2012,0.54295 0.31282,0.85026 z m -0.38034,-1.07488 c -0.0882,-0.24253 -0.17639,-0.4768 -0.26458,-0.70417 -0.0882,-0.226 -0.17915,-0.44373 -0.27286,-0.65182 -0.0992,0.20809 -0.19154,0.42582 -0.27836,0.65182 -0.0882,0.22737 -0.17501,0.46164 -0.26183,0.70417 z m 4.35873,-0.37482 c 0,0.24942 -0.04,0.46715 -0.11851,0.65319 -0.0772,0.18603 -0.18741,0.339 -0.32935,0.46026 -0.14194,0.11989 -0.31143,0.21084 -0.50987,0.2701 -0.19706,0.0606 -0.41479,0.0909 -0.65043,0.0909 -0.11852,0 -0.24667,-0.005 -0.38723,-0.0138 -0.14194,-0.011 -0.26872,-0.0303 -0.3831,-0.0579 v -2.80569 c 0.11438,-0.0289 0.24116,-0.0482 0.3831,-0.0579 0.14056,-0.008 0.26871,-0.0138 0.38723,-0.0138 0.23564,0 0.45337,0.0303 0.65043,0.0896 0.19844,0.0593 0.36793,0.15021 0.50987,0.2701 0.14194,0.12264 0.25218,0.27561 0.32935,0.46026 0.0785,0.18604 0.11851,0.40376 0.11851,0.65457 z m -1.57509,1.11897 c 0.38447,0 0.6711,-0.0978 0.85989,-0.29491 0.18879,-0.19568 0.28388,-0.46991 0.28388,-0.82406 0,-0.35416 -0.0951,-0.62839 -0.28388,-0.82545 -0.18879,-0.19706 -0.47542,-0.2949 -0.85989,-0.2949 -0.11576,0 -0.20257,10e-4 -0.26596,0.004 -0.062,0.003 -0.10611,0.005 -0.13092,0.008 v 2.21451 c 0.0248,0.003 0.0689,0.006 0.13092,0.008 0.0634,0.003 0.1502,0.004 0.26596,0.004 z m 2.1208,0.33073 v -2.89526 h 1.76802 v 0.34726 h -1.3615 v 0.8599 h 1.21129 v 0.339 H 113.133 v 1.00183 h 1.46485 v 0.34727 z m 4.91684,-1.4249 h 0.40514 v 1.35324 c -0.0331,0.011 -0.0799,0.0234 -0.14331,0.0372 -0.062,0.0138 -0.13643,0.0275 -0.21773,0.0427 -0.0813,0.0138 -0.17088,0.0262 -0.26872,0.0358 -0.0978,0.008 -0.19706,0.0138 -0.29766,0.0138 -0.20257,0 -0.38723,-0.0331 -0.55535,-0.1006 -0.16674,-0.0661 -0.31144,-0.16399 -0.42994,-0.29214 -0.1199,-0.12816 -0.21222,-0.28664 -0.27837,-0.4713 -0.0648,-0.18603 -0.0978,-0.401 -0.0978,-0.64354 0,-0.24253 0.0372,-0.45751 0.11162,-0.64492 0.073,-0.18879 0.17226,-0.34589 0.29766,-0.47542 0.1254,-0.12816 0.27147,-0.22462 0.44097,-0.29214 0.16812,-0.0662 0.34865,-0.0992 0.54019,-0.0992 0.13091,0 0.24805,0.008 0.35002,0.0248 0.1006,0.0165 0.18879,0.0344 0.26045,0.0579 0.073,0.022 0.1323,0.0441 0.17777,0.0675 0.0469,0.022 0.0772,0.0386 0.0937,0.0496 l -0.12954,0.339 c -0.0813,-0.0537 -0.18741,-0.0978 -0.32108,-0.13229 -0.13367,-0.0345 -0.27147,-0.0524 -0.40928,-0.0524 -0.14883,0 -0.28249,0.0262 -0.40376,0.0799 -0.12127,0.0537 -0.22462,0.12954 -0.30868,0.23014 -0.0854,0.10059 -0.15159,0.22048 -0.19844,0.3638 -0.0482,0.14331 -0.0717,0.30455 -0.0717,0.48369 0,0.17225 0.0207,0.33073 0.0606,0.47129 0.04,0.14194 0.10197,0.26458 0.18328,0.36518 0.0813,0.10198 0.18328,0.18052 0.30592,0.23702 0.11989,0.0551 0.26321,0.0827 0.42719,0.0827 0.11714,0 0.21773,-0.005 0.29904,-0.0179 0.0827,-0.0138 0.14194,-0.0248 0.17776,-0.0358 z m 2.92144,1.4249 c -0.0482,-0.12541 -0.0937,-0.24943 -0.13505,-0.3707 -0.0413,-0.12126 -0.0841,-0.24391 -0.12816,-0.36793 h -1.31189 l -0.2632,0.73863 h -0.42306 c 0.11162,-0.30731 0.21497,-0.58981 0.31419,-0.85026 0.0965,-0.26044 0.19293,-0.50849 0.28663,-0.74138 0.0937,-0.23289 0.18604,-0.45751 0.27699,-0.66973 0.091,-0.21359 0.18741,-0.42443 0.28801,-0.63389 h 0.37069 c 0.10198,0.20946 0.19706,0.4203 0.28939,0.63389 0.0909,0.21222 0.18466,0.43684 0.27836,0.66973 0.0937,0.23289 0.1888,0.48094 0.28663,0.74138 0.0978,0.26045 0.2012,0.54295 0.31282,0.85026 z m -0.38034,-1.07488 c -0.0896,-0.24253 -0.17777,-0.4768 -0.26596,-0.70417 -0.0868,-0.226 -0.17915,-0.44373 -0.27285,-0.65182 -0.0992,0.20809 -0.19155,0.42582 -0.27837,0.65182 -0.0882,0.22737 -0.17501,0.46164 -0.26045,0.70417 z m 3.14468,1.07488 c -0.0606,-0.10336 -0.13091,-0.21911 -0.21083,-0.34727 -0.0786,-0.12816 -0.16537,-0.26045 -0.25632,-0.39963 -0.091,-0.13643 -0.18741,-0.27699 -0.28525,-0.41893 -0.0992,-0.14193 -0.19844,-0.27974 -0.29491,-0.41203 -0.0992,-0.13091 -0.19292,-0.25631 -0.28387,-0.37345 -0.0937,-0.11713 -0.17777,-0.22048 -0.25494,-0.31006 v 2.26137 h -0.39825 v -2.89526 h 0.32246 c 0.13091,0.13918 0.27148,0.30179 0.4203,0.48644 0.14745,0.18604 0.29628,0.37621 0.44235,0.57189 0.14607,0.19706 0.28388,0.38998 0.41341,0.57878 0.12954,0.19016 0.23978,0.35829 0.32798,0.50573 v -2.14284 h 0.39687 v 2.89526 z m 2.94212,0 c -0.0482,-0.12541 -0.0937,-0.24943 -0.13505,-0.3707 -0.0413,-0.12126 -0.0841,-0.24391 -0.12816,-0.36793 h -1.31189 l -0.26321,0.73863 h -0.42305 c 0.11162,-0.30731 0.21497,-0.58981 0.31419,-0.85026 0.0965,-0.26044 0.19292,-0.50849 0.28663,-0.74138 0.0937,-0.23289 0.18604,-0.45751 0.27698,-0.66973 0.0909,-0.21359 0.18742,-0.42443 0.28802,-0.63389 h 0.37069 c 0.10059,0.20946 0.19706,0.4203 0.28939,0.63389 0.091,0.21222 0.18465,0.43684 0.27836,0.66973 0.0937,0.23289 0.18879,0.48094 0.28663,0.74138 0.0965,0.26045 0.2012,0.54295 0.31281,0.85026 z m -0.38034,-1.07488 c -0.0896,-0.24253 -0.17777,-0.4768 -0.26596,-0.70417 -0.0868,-0.226 -0.17915,-0.44373 -0.27285,-0.65182 -0.0992,0.20809 -0.19155,0.42582 -0.27837,0.65182 -0.0882,0.22737 -0.17501,0.46164 -0.26045,0.70417 z m 3.53742,-0.37482 c 0,0.24942 -0.0386,0.46715 -0.11713,0.65319 -0.0772,0.18603 -0.18742,0.339 -0.32935,0.46026 -0.14194,0.11989 -0.31144,0.21084 -0.50988,0.2701 -0.19706,0.0606 -0.41617,0.0909 -0.65181,0.0909 -0.11713,0 -0.24529,-0.005 -0.38723,-0.0138 -0.14056,-0.011 -0.26734,-0.0303 -0.38172,-0.0579 v -2.80569 c 0.11438,-0.0289 0.24116,-0.0482 0.38172,-0.0579 0.14194,-0.008 0.2701,-0.0138 0.38723,-0.0138 0.23564,0 0.45475,0.0303 0.65181,0.0896 0.19844,0.0593 0.36794,0.15021 0.50988,0.2701 0.14193,0.12264 0.25218,0.27561 0.32935,0.46026 0.0786,0.18604 0.11713,0.40376 0.11713,0.65457 z m -1.57372,1.11897 c 0.38447,0 0.67111,-0.0978 0.8599,-0.29491 0.18879,-0.19568 0.28387,-0.46991 0.28387,-0.82406 0,-0.35416 -0.0951,-0.62839 -0.28387,-0.82545 -0.18879,-0.19706 -0.47543,-0.2949 -0.8599,-0.2949 -0.11576,0 -0.20257,10e-4 -0.26596,0.004 -0.062,0.003 -0.10611,0.005 -0.13091,0.008 v 2.21451 c 0.0248,0.003 0.0689,0.006 0.13091,0.008 0.0634,0.003 0.1502,0.004 0.26596,0.004 z m 2.00918,-1.11897 c 0,-0.24805 0.0358,-0.46716 0.11024,-0.65595 0.0744,-0.19017 0.17502,-0.34864 0.3018,-0.47542 0.12677,-0.12678 0.27285,-0.22049 0.44097,-0.28525 0.16812,-0.0634 0.34726,-0.0951 0.53605,-0.0951 0.18742,0 0.3638,0.0317 0.53055,0.0951 0.16536,0.0648 0.31144,0.15847 0.43684,0.28525 0.12402,0.12678 0.22324,0.28525 0.29765,0.47542 0.073,0.18879 0.11025,0.4079 0.11025,0.65595 0,0.24804 -0.0372,0.46577 -0.11025,0.65595 -0.0744,0.19016 -0.17363,0.34726 -0.29765,0.47404 -0.1254,0.12678 -0.27148,0.22186 -0.43684,0.28663 -0.16675,0.0634 -0.34313,0.0951 -0.53055,0.0951 -0.18879,0 -0.36793,-0.0317 -0.53605,-0.0951 -0.16812,-0.0648 -0.3142,-0.15985 -0.44097,-0.28663 -0.12678,-0.12678 -0.22738,-0.28388 -0.3018,-0.47404 -0.0744,-0.19018 -0.11024,-0.40791 -0.11024,-0.65595 z m 0.42444,0 c 0,0.17501 0.022,0.33348 0.0675,0.4768 0.0441,0.14331 0.10748,0.26596 0.19016,0.36656 0.0813,0.10059 0.18191,0.17776 0.30042,0.23151 0.11851,0.0551 0.2508,0.0813 0.39825,0.0813 0.14883,0 0.28112,-0.0262 0.39825,-0.0813 0.11714,-0.0537 0.21636,-0.13092 0.29904,-0.23151 0.0813,-0.1006 0.14469,-0.22325 0.19017,-0.36656 0.0441,-0.14332 0.0661,-0.30179 0.0661,-0.4768 0,-0.17501 -0.022,-0.33487 -0.0661,-0.47818 -0.0455,-0.14332 -0.10887,-0.26596 -0.19017,-0.36656 -0.0827,-0.1006 -0.1819,-0.17777 -0.29904,-0.23151 -0.11713,-0.0537 -0.24942,-0.0813 -0.39825,-0.0813 -0.14745,0 -0.27974,0.0275 -0.39825,0.0813 -0.11851,0.0537 -0.21911,0.13091 -0.30042,0.23151 -0.0827,0.1006 -0.14607,0.22324 -0.19016,0.36656 -0.0455,0.14331 -0.0675,0.30317 -0.0675,0.47818 z m 4.30361,0.2384 c 0.0455,0.0551 0.10198,0.12678 0.17088,0.21911 0.0675,0.0909 0.1378,0.19017 0.21084,0.30041 0.0717,0.11024 0.14331,0.22462 0.21359,0.34451 0.0717,0.11989 0.13229,0.23564 0.1819,0.34727 h -0.44235 c -0.0551,-0.10611 -0.11713,-0.2136 -0.1819,-0.32247 -0.0648,-0.10748 -0.13229,-0.21222 -0.19844,-0.31143 -0.0675,-0.0978 -0.13367,-0.19017 -0.19843,-0.27699 -0.0648,-0.0868 -0.12403,-0.16123 -0.17777,-0.226 -0.0372,0.003 -0.073,0.004 -0.11024,0.004 -0.0372,0 -0.0758,0 -0.11438,0 h -0.3638 v 1.13275 h -0.40652 v -2.85254 c 0.11437,-0.0289 0.24253,-0.0482 0.38309,-0.0579 0.14056,-0.008 0.2701,-0.0138 0.38723,-0.0138 0.40652,0 0.71658,0.0772 0.9288,0.23014 0.21222,0.15296 0.3197,0.38033 0.3197,0.68488 0,0.19293 -0.051,0.35553 -0.15158,0.49196 -0.10198,0.13642 -0.25356,0.2384 -0.45062,0.30592 z m -0.61323,-1.35875 c -0.17363,0 -0.30592,0.004 -0.39687,0.0124 v 1.09141 h 0.28801 c 0.1378,0 0.2632,-0.007 0.3762,-0.022 0.11162,-0.0138 0.20533,-0.04 0.2825,-0.0786 0.0758,-0.0386 0.13505,-0.0937 0.17639,-0.16537 0.0427,-0.0703 0.062,-0.16398 0.062,-0.28111 0,-0.10887 -0.0193,-0.19982 -0.062,-0.27286 -0.0413,-0.0717 -0.0978,-0.12815 -0.16812,-0.1695 -0.0717,-0.0427 -0.15572,-0.0717 -0.25218,-0.0896 -0.0951,-0.0165 -0.19844,-0.0248 -0.30593,-0.0248 z m 1.77492,2.57005 v -2.89526 h 1.76802 v 0.34726 h -1.36288 v 0.8599 h 1.21267 v 0.339 h -1.21267 v 1.00183 h 1.46623 v 0.34727 z m 3.00274,-0.28802 c 0.42444,0 0.63666,-0.14469 0.63666,-0.43408 0,-0.0896 -0.0193,-0.16674 -0.0579,-0.22875 -0.0372,-0.0634 -0.0882,-0.11576 -0.15297,-0.16261 -0.0634,-0.0455 -0.13642,-0.0854 -0.2191,-0.11989 -0.0813,-0.0331 -0.1695,-0.0661 -0.26045,-0.0992 -0.10611,-0.0372 -0.20671,-0.0785 -0.30042,-0.12402 -0.0951,-0.0468 -0.17639,-0.0992 -0.24666,-0.16261 -0.0689,-0.062 -0.12541,-0.13781 -0.16537,-0.22325 -0.04,-0.0868 -0.0606,-0.19154 -0.0606,-0.31281 0,-0.25356 0.0868,-0.452 0.25907,-0.59393 0.17226,-0.14194 0.41066,-0.21222 0.7152,-0.21222 0.17501,0 0.33487,0.0179 0.47818,0.0551 0.14332,0.0386 0.24667,0.0799 0.3142,0.12264 l -0.12816,0.33073 c -0.0579,-0.0372 -0.14607,-0.0717 -0.26045,-0.10611 -0.11713,-0.0345 -0.25218,-0.0524 -0.40377,-0.0524 -0.0786,0 -0.15158,0.008 -0.21773,0.0248 -0.0675,0.0165 -0.1254,0.0413 -0.17501,0.0744 -0.051,0.0345 -0.0896,0.0772 -0.11989,0.12816 -0.0289,0.0524 -0.0427,0.113 -0.0427,0.1819 0,0.0785 0.0152,0.14332 0.0455,0.19706 0.0303,0.0537 0.073,0.0992 0.12953,0.13918 0.0551,0.0413 0.1199,0.0772 0.19431,0.11025 0.073,0.0345 0.15434,0.0675 0.24391,0.10059 0.1254,0.0496 0.23978,0.0992 0.34589,0.15021 0.10335,0.0496 0.1943,0.10887 0.2701,0.17914 0.0772,0.0703 0.13642,0.15297 0.17776,0.24943 0.0413,0.0951 0.062,0.21222 0.062,0.34864 0,0.25356 -0.0923,0.44924 -0.27698,0.58567 -0.18604,0.13505 -0.44649,0.20395 -0.78411,0.20395 -0.11299,0 -0.2191,-0.007 -0.31557,-0.022 -0.0951,-0.0152 -0.1819,-0.0345 -0.25631,-0.0551 -0.0744,-0.0207 -0.13918,-0.0427 -0.1943,-0.0675 -0.0538,-0.0234 -0.0965,-0.0427 -0.12817,-0.0593 l 0.12265,-0.33486 c 0.0634,0.0372 0.16123,0.0772 0.29215,0.12126 0.13091,0.0455 0.29076,0.0675 0.47955,0.0675"
         style="fill:#ffffff;fill-opacity:1;fill-rule:evenodd;stroke:none;stroke-width:0.352777" />
      <path
         sodipodi:nodetypes="ccccccccccccccccccccccccccccccccccccccccccccccccsccccccccccccccccccccccsccccccccccccccccccccccccccccccccccccccccccccccccccccccccccccccccccccccccccccccccccccccc"
         id="path169"
         d="m 105.02462,130.45929 c -2.15525,1.20578 -3.09507,0.77859 -3.80338,0.31143 -0.42444,-0.27836 -0.76619,-0.57188 -1.2361,-0.52917 -0.062,0.007 -0.11713,0.0317 -0.16537,0.0648 -0.25631,0.19155 -0.40376,0.74828 -0.39963,1.24299 0.003,0.19568 0.0275,0.38447 0.0758,0.53055 0.20257,0.58429 0.71796,0.12264 1.00183,0.54708 0.16399,0.24391 0.29628,0.50574 0.39688,0.77859 0.14883,0.4079 0.23151,0.83647 0.23702,1.22094 0.007,0.38861 -0.0579,0.72898 -0.19568,0.97703 -0.0758,0.1378 -0.20257,0.23427 -0.38034,0.27423 -0.11576,0.0275 -0.25632,0.0303 -0.42168,0.004 -0.24115,-0.0441 -0.53744,-0.15296 -0.87919,-0.3514 -0.17639,-0.1006 -0.38172,-0.28388 -0.59531,-0.51952 -0.58705,-0.64492 -1.22094,-1.67018 -1.41662,-2.35369 -0.0179,-0.0648 -0.0303,-0.1254 -0.0427,-0.18052 -0.55949,-3.12815 0.7841,-6.60356 0.7841,-6.60356 0,0 0.0579,0.0152 0.15847,0.0427 0.5085,0.14883 2.13183,0.61322 3.41065,0.94947 0.50987,0.1378 0.96876,0.24804 1.2733,0.31143 1.93615,0.40377 2.65962,1.5751 2.63757,2.42811 -0.005,0.38447 -0.16674,0.70142 -0.4396,0.85438 z m 0.32109,18.16254 c -0.46165,-1.00459 -0.63803,-1.92099 -0.51264,-2.97105 0.0358,-2.41157 1.63712,-5.10977 2.87322,-6.69176 -1.58199,2.78088 -1.8328,6.11849 -0.97428,9.71793 0.0978,0.40239 0.21084,0.79375 0.33487,1.18098 -0.0841,0.0978 -0.29904,0.004 -0.48507,-0.11851 -0.65595,-0.16537 -1.06523,-0.6656 -1.2361,-1.11759 z m 8.74365,-17.39911 c -0.008,0.0358 -0.0207,0.0661 -0.0303,0.10335 -0.0799,0.25907 -0.11576,0.47956 -1.19752,0.17639 -0.0703,-0.0207 -0.14607,-0.0413 -0.22875,-0.0662 -1.30087,-0.39963 -3.288,-1.55718 -3.29076,-1.56131 0.003,0.004 0.5774,0.04 1.31327,0.13229 0.73863,0.0882 1.63987,0.226 2.28892,0.42719 0.97841,0.29903 1.16444,0.49472 1.16031,0.6904 -0.003,0.0331 -0.01,0.0675 -0.0152,0.0978 z m 12.88052,4.84794 c 0,0 -0.84887,-1.88654 -1.73082,-2.36885 -3.23563,-1.76527 -5.45565,-2.08222 -6.52638,-2.10702 -0.48645,-0.0124 -0.73726,0.0358 -0.73726,0.0358 0,0 -0.0179,-0.0331 -0.0482,-0.0937 -0.20808,-0.42168 -1.06797,-2.13734 -1.45658,-2.59484 -0.5526,-0.66284 -1.65502,-1.37391 -2.44188,-1.73495 -0.11576,-0.051 -0.22049,-0.0937 -0.31833,-0.13368 -1.71566,-0.63252 -4.38888,-1.25216 -7.09139,-1.7625 -2.70491,-0.51079 -5.43085,-0.90951 -7.25123,-1.10795 -0.11576,-0.0124 -0.23565,-0.0207 -0.35416,-0.0331 -1.79834,-0.16812 -3.99631,-0.11576 -8.27098,1.63573 -0.93156,0.38171 -1.71842,0.73312 -2.40606,1.08727 -0.68626,0.34727 -1.27331,0.69866 -1.80661,1.07211 -2.16214,1.51447 -2.833244,3.07165 -2.915924,4.27054 -0.0248,0.39688 0.01242,0.75792 0.08268,1.05972 0.163989,0.70555 0.690394,-1.38631 3.358274,-2.07946 0.3018,-0.0758 0.5774,-0.14608 0.82959,-0.2012 1.75975,-0.40652 2.33301,-0.34451 2.33301,-0.34451 0,0 0.04,0.0234 0.0303,0.0538 -0.005,0.022 -0.0262,0.0468 -0.0854,0.0675 -0.0758,0.0303 -0.16123,0.0703 -0.25631,0.11024 -1.40836,0.65044 -4.70187,2.66237 -5.75193,4.22507 -0.119894,0.18052 -0.213599,0.39688 -0.286635,0.64079 -0.143316,0.4892 -0.201196,1.08727 -0.201196,1.69223 0.0028,0.90675 0.137806,1.8383 0.314195,2.46393 0.112998,0.41479 0.248046,0.69591 0.369316,0.74138 0.49471,0.18604 0.62838,-0.61322 1.17822,-1.48276 0.33073,-0.52228 0.80615,-1.06936 1.59715,-1.43868 2.10977,-0.98943 2.67753,-0.25631 2.67753,-0.25631 0,0 0.0124,0.0179 0.0179,0.0345 0,0.005 -0.003,0.008 -0.003,0.011 0,0.0152 -0.007,0.0331 -0.0372,0.0496 -0.11025,0.0482 -0.3018,0.14607 -0.54571,0.28939 -1.27055,0.73311 -3.99355,2.64721 -3.97839,5.05877 0,0.0923 0.005,0.18328 0.0152,0.27837 0.12539,1.31602 0.37895,2.35093 0.6711,3.175 0.49196,1.36977 1.09692,2.1456 1.41662,2.5852 0.41341,0.5705 0.47956,-0.073 0.7786,-1.0859 0.0193,-0.0579 0.0372,-0.11989 0.0551,-0.18328 0.25355,-0.80339 0.66007,-1.80109 1.48414,-2.60449 0.0634,-0.0634 0.13091,-0.1254 0.19844,-0.18328 1.75562,-1.52962 2.97105,-2.40329 3.39135,-2.69682 0.0951,-0.0661 0.10197,-0.008 0.0951,0.0262 v 0.0138 c 0,0 -1.23334,1.16307 -2.34542,2.78502 -0.89986,1.31603 -1.71428,2.93108 -1.72117,4.46898 -0.003,0.35828 0.04,0.70555 0.13505,1.05144 0.20671,0.76068 0.51263,1.41387 0.85438,1.97748 1.30914,2.15939 3.25493,3.00413 3.25493,3.00413 0.32384,-0.0455 0.41754,-0.14607 0.41203,-0.34727 -0.0124,-0.31144 -0.2508,-0.85852 -0.25356,-1.78869 -0.003,-0.04 -0.007,-0.0799 -0.003,-0.11989 0.005,-0.38172 0.051,-0.81718 0.16812,-1.3243 0.16124,-0.7276 0.40239,-1.33807 0.66146,-1.8383 0.43408,-0.83647 0.9164,-1.3615 1.17823,-1.58199 0.14056,-0.11575 0.13504,0.022 0.13504,0.022 0,0 -0.007,0.0248 -0.0179,0.073 -0.01,0.0455 -0.0289,0.11576 -0.0468,0.20395 -0.1819,0.8034 -0.6835,3.1943 -0.67661,5.25171 0.003,1.1479 0.16398,2.18694 0.62286,2.79741 0.21912,0.29215 0.47268,0.56087 0.75104,0.81443 0.0937,0.0827 0.19155,0.16536 0.28939,0.24666 2.56452,2.07947 6.83506,2.7423 6.97562,2.39503 0.01,-0.0248 -0.003,-0.0565 -0.0427,-0.0951 -1.42764,-1.35599 -2.90904,-2.49425 -3.80338,-6.44232 -0.26872,-1.18099 -0.39136,-2.31097 -0.43408,-3.32521 -0.0124,-0.33762 -0.0152,-0.66559 -0.0124,-0.97427 0.01,-1.23611 0.13504,-2.22416 0.22875,-2.7988 0.0165,-0.0786 0.0317,-0.11576 0.0441,-0.13091 0.0606,-0.0772 0.12816,0.23702 0.12816,0.23702 0,0 1.20578,7.74044 5.58932,11.79738 0.45475,0.41617 0.1006,0.0482 0.62563,0.37896 1.05696,0.66008 2.48874,1.08452 3.88745,1.32292 0.25356,0.0441 0.50987,0.0813 0.7593,0.11438 0.1254,0.0138 0.24804,0.0275 0.36931,0.0441 2.09186,0.21222 3.84197,0.0138 3.74689,-0.41893 -0.003,-0.0248 -0.0152,-0.0482 -0.0372,-0.0758 -0.42995,-0.63252 -1.19063,0.28663 -2.85116,-1.11483 -1.14515,-0.97152 -1.59991,-1.74046 -1.05696,-1.9513 l 0.26596,0.10749 c 1.22783,0.42995 2.6293,1.91133 5.0326,2.25309 0.32246,0.0455 0.68075,0.073 1.06522,0.0703 0.88884,-0.007 1.79421,-0.0882 2.64859,-0.23014 0.24529,-0.0358 0.48645,-0.0813 0.72071,-0.12815 1.99402,-0.39963 3.5705,-1.06109 3.70968,-1.61369 0.007,-0.0317 0.0124,-0.062 0.01,-0.0951 -0.01,-0.12815 -0.0978,-0.24666 -0.28387,-0.35415 -0.0496,-0.0248 -0.1006,-0.0496 -0.15848,-0.0772 -0.69315,-0.2949 -3.40099,0.2508 -5.92969,-0.62287 -0.58291,-0.20395 -1.15756,-0.47818 -1.69086,-0.8599 -2.23793,-1.58474 -2.68028,-3.03444 -2.77261,-3.52364 -0.0179,-0.113 -0.0179,-0.17364 -0.0179,-0.17364 0,0 0.0358,-0.004 0.11024,-0.007 0.49059,-0.0275 2.47496,-0.14883 2.77813,-0.50298 0.32384,-0.37621 0.70831,-0.99219 1.04455,-1.69499 0.34176,-0.69591 0.62839,-1.4745 0.76619,-2.15801 0.051,-0.27422 0.0827,-0.53467 0.0786,-0.76894 -0.003,-0.47129 -0.13642,-0.8406 -0.45199,-1.02664 -0.26183,-0.15296 -0.5526,0.003 -0.89986,0.23565 -0.0496,0.0303 -0.10198,0.0661 -0.15296,0.10059 -0.41479,0.27974 -0.91365,0.61599 -1.52687,0.6587 -0.27836,0.0152 -0.52503,0.0179 -0.75654,-0.003 -0.69867,-0.0675 -1.25539,-0.33899 -1.98438,-1.0101 -0.48644,-0.44924 -0.96187,-1.42627 -0.97427,-2.42121 -0.003,-0.452 0.0882,-0.90675 0.31695,-1.31879 0.85851,-1.51859 2.45566,-3.14468 4.34495,-3.72208 0.0854,-0.0276 0.17639,-0.051 0.26872,-0.0703 1.35875,-0.3073 2.91593,0.0951 3.288,0.94396 0.2384,0.5457 0.30868,1.04731 0.28388,1.50482 -0.0551,1.14515 -0.68627,2.03536 -0.71383,2.78088 -0.003,0.1502 0.0138,0.29077 0.0675,0.42719 0.33486,0.87781 0.91226,0.34589 3.55534,-1.21405 0.26321,-0.15572 0.49472,-0.30592 0.7028,-0.452 1.44694,-1.01974 1.63436,-1.79834 1.63436,-1.79834 0,0 0.54294,-0.97702 0.71382,-2.31786 0.2067,-1.57509 -0.77584,-1.44694 -0.83371,-1.43453 l 0.82406,-0.14608 z"
         style="fill:#ffffff;fill-opacity:0.6;fill-rule:nonzero;stroke:none;stroke-width:0.352777" />
      <path
         id="path171"
         d="m 111.72327,125.81529 c 0,0 -2.18557,-1.46209 -2.64997,-1.98713 -0.0882,-0.0978 -0.16399,-0.2508 -0.23427,-0.42443 -0.19292,-0.4768 -0.32108,-1.12172 -0.34313,-1.22094 0,-0.01 0,-0.0165 0,-0.0165 0,0 -2.77261,0.33349 -3.38859,0.62426 -0.0358,0.0179 -0.073,0.0358 -0.10887,0.0606 -0.57464,0.37758 -1.305,1.57234 -1.305,1.57234 z m 0,0"
         style="fill:#ffffff;fill-opacity:0.6;fill-rule:nonzero;stroke:none;stroke-width:0.352777" />
      <path
         id="path173"
         d="m 108.98511,138.96454 c -3.10197,0 -4.35184,2.36333 -4.35184,5.19658 0,2.83325 2.01193,3.27284 3.57876,3.27284 0.68075,0 2.45566,-0.26458 2.5976,-1.00872 0.0648,-0.33349 0.0772,-0.66559 0.0772,-0.71245 0,-0.19017 -0.0469,-0.19292 -0.10887,-0.19292 -0.22186,0 -1.03215,0.77721 -2.45704,0.77721 -1.39319,0 -2.30959,-0.52503 -2.30959,-2.28203 v -0.15572 c 0.33073,0.0634 0.77583,0.10886 1.3615,0.10886 2.1525,0 4.27192,-0.69453 4.27192,-2.89525 0,-0.80891 -0.66421,-2.1084 -2.65961,-2.1084 z m -0.14056,1.14101 c 0.90261,0 1.42351,0.5085 1.42351,1.09554 0,1.63022 -2.59622,1.63022 -3.05511,1.63022 h -1.1231 c 0.20671,-1.47174 0.91777,-2.72576 2.7547,-2.72576 z m 0,0"
         style="fill:none;stroke:#ffffff;stroke-width:0.860586;stroke-linecap:round;stroke-linejoin:round;stroke-miterlimit:22.9256;stroke-opacity:1" />
      <path
         id="path175"
         d="m 108.98511,138.96591 c -3.10335,0 -4.35185,2.36196 -4.35185,5.19521 0,2.83462 2.01193,3.27284 3.57876,3.27284 0.68076,0 2.45567,-0.26459 2.59761,-1.00872 0.0634,-0.33349 0.0758,-0.6656 0.0758,-0.71245 0,-0.19017 -0.0455,-0.19293 -0.10886,-0.19293 -0.22049,0 -1.03215,0.77722 -2.45704,0.77722 -1.3932,0 -2.3096,-0.52503 -2.3096,-2.28203 v -0.15572 c 0.33211,0.0634 0.77722,0.10886 1.36288,0.10886 2.1525,0 4.27192,-0.69453 4.27192,-2.89526 0,-0.80753 -0.66421,-2.10702 -2.65961,-2.10702 z m -0.14056,1.13964 c 0.90123,0 1.42351,0.50988 1.42351,1.09554 0,1.63022 -2.59761,1.6316 -3.05511,1.6316 h -1.12311 c 0.20671,-1.47313 0.91778,-2.72714 2.75471,-2.72714"
         style="fill:#ffffff;fill-opacity:1;fill-rule:nonzero;stroke:none;stroke-width:0.352777" />
      <path
         id="path177"
         d="m 96.39948,135.43125 c -0.73311,0 -1.04455,0.19568 -1.04593,0.56224 l -0.0138,11.18967 c 0,0.36655 0.31281,0.55535 1.04593,0.55535 h 0.20809 c 0.55948,0 0.92741,-0.0675 1.01561,-0.452 l 0.17639,-0.74965 c 0.40239,0.7524 1.25815,1.30775 2.34128,1.30775 1.88654,0 3.26182,-1.67569 3.26182,-4.71426 0,-2.84703 -1.32567,-4.69912 -3.6835,-4.69912 -0.81993,0 -1.41249,0.27975 -1.77904,0.54157 l 0.0138,-2.97931 c 0.001,-0.36656 -0.31695,-0.56224 -1.05145,-0.56224 z m 2.75057,5.04499 c 1.09967,0 1.62195,0.90675 1.62195,2.65411 0,1.6936 -0.45476,2.60173 -1.41525,2.60173 -0.66421,0 -1.11621,-0.4892 -1.4304,-1.03077 v -3.89158 c 0.27974,-0.1571 0.68213,-0.33349 1.2237,-0.33349"
         style="fill:#ffffff;fill-opacity:1;fill-rule:nonzero;stroke:none;stroke-width:0.352777" />
    </g>
  </g>
</svg>
